HIERARCHY
ROOT Hips
{
	OFFSET 0.000000 100.481300 0.000000
	CHANNELS 6 Xposition Yposition Zposition Xrotation Yrotation Zrotation
	JOINT Spine
	{
		OFFSET -0.279200 12.230698 -2.892100
		CHANNELS 3 Xrotation Yrotation Zrotation
		JOINT Spine1
		{
			OFFSET -0.325700 14.269203 -3.374200
			CHANNELS 3 Xrotation Yrotation Zrotation
			JOINT Spine2
			{
				OFFSET -0.372300 16.307602 -0.352600
				CHANNELS 3 Xrotation Yrotation Zrotation
				JOINT Neck
				{
					OFFSET -0.418800 17.814194 8.416900
					CHANNELS 3 Xrotation Yrotation Zrotation
					JOINT Head
					{
						OFFSET 0.000000 7.031097 3.806800
						CHANNELS 3 Xrotation Yrotation Zrotation
						JOINT HeadTop_End
						{
							OFFSET 0.000000 24.646606 12.978600
							CHANNELS 3 Xrotation Yrotation Zrotation
							End Site
							{
								OFFSET 0.000000 27.854965 0.000000
							}
						}
					}
				}
				JOINT LeftShoulder
				{
					OFFSET 16.952999 14.495407 -7.737500
					CHANNELS 3 Xrotation Yrotation Zrotation
					JOINT LeftArm
					{
						OFFSET 9.308998 -2.777710 0.208600
						CHANNELS 3 Xrotation Yrotation Zrotation
						JOINT LeftForeArm
						{
							OFFSET 29.972298 0.000000 0.000000
							CHANNELS 3 Xrotation Yrotation Zrotation
							JOINT LeftHand
							{
								OFFSET 26.026505 0.000000 0.000000
								CHANNELS 3 Xrotation Yrotation Zrotation
								JOINT LeftHandThumb1
								{
									OFFSET 12.240501 -7.147949 9.207150
									CHANNELS 3 Xrotation Yrotation Zrotation
									JOINT LeftHandThumb2
									{
										OFFSET 4.138618 -2.389435 2.389433
										CHANNELS 3 Xrotation Yrotation Zrotation
										JOINT LeftHandThumb3
										{
											OFFSET 2.726913 -1.574387 1.574386
											CHANNELS 3 Xrotation Yrotation Zrotation
											JOINT LeftHandThumb4
											{
												OFFSET 3.941010 -2.275345 2.275342
												CHANNELS 3 Xrotation Yrotation Zrotation
												End Site
												{
													OFFSET -0.005798 5.087799 0.009903
												}
											}
										}
									}
								}
								JOINT LeftHandIndex1
								{
									OFFSET 24.424698 -1.985611 5.953459
									CHANNELS 3 Xrotation Yrotation Zrotation
									JOINT LeftHandIndex2
									{
										OFFSET 6.426697 0.000000 0.000000
										CHANNELS 3 Xrotation Yrotation Zrotation
										JOINT LeftHandIndex3
										{
											OFFSET 5.337898 0.000000 0.000000
											CHANNELS 3 Xrotation Yrotation Zrotation
											JOINT LeftHandIndex4
											{
												OFFSET 4.409401 0.000000 0.000000
												CHANNELS 3 Xrotation Yrotation Zrotation
												End Site
												{
													OFFSET 0.000000 4.409363 0.014373
												}
											}
										}
									}
								}
								JOINT LeftHandMiddle1
								{
									OFFSET 23.810104 0.000000 0.000000
									CHANNELS 3 Xrotation Yrotation Zrotation
									JOINT LeftHandMiddle2
									{
										OFFSET 7.176498 0.000000 0.000000
										CHANNELS 3 Xrotation Yrotation Zrotation
										JOINT LeftHandMiddle3
										{
											OFFSET 6.774902 0.000000 0.000000
											CHANNELS 3 Xrotation Yrotation Zrotation
											JOINT LeftHandMiddle4
											{
												OFFSET 5.403328 0.000000 0.000000
												CHANNELS 3 Xrotation Yrotation Zrotation
												End Site
												{
													OFFSET -0.027702 5.403244 0.017414
												}
											}
										}
									}
								}
								JOINT LeftHandRing1
								{
									OFFSET 22.908401 -0.839279 -6.020567
									CHANNELS 3 Xrotation Yrotation Zrotation
									JOINT LeftHandRing2
									{
										OFFSET 6.337502 0.000000 0.000000
										CHANNELS 3 Xrotation Yrotation Zrotation
										JOINT LeftHandRing3
										{
											OFFSET 5.779297 0.000000 0.000000
											CHANNELS 3 Xrotation Yrotation Zrotation
											JOINT LeftHandRing4
											{
												OFFSET 4.965698 0.000000 0.000000
												CHANNELS 3 Xrotation Yrotation Zrotation
												End Site
												{
													OFFSET 0.000000 4.965668 0.016186
												}
											}
										}
									}
								}
								JOINT LeftHandPinky1
								{
									OFFSET 20.037003 -1.530319 -10.950146
									CHANNELS 3 Xrotation Yrotation Zrotation
									JOINT LeftHandPinky2
									{
										OFFSET 5.254700 0.000000 0.000000
										CHANNELS 3 Xrotation Yrotation Zrotation
										JOINT LeftHandPinky3
										{
											OFFSET 4.810204 0.000000 0.000000
											CHANNELS 3 Xrotation Yrotation Zrotation
											JOINT LeftHandPinky4
											{
												OFFSET 3.647202 0.000000 0.000000
												CHANNELS 3 Xrotation Yrotation Zrotation
												End Site
												{
													OFFSET 0.000000 3.647186 0.011889
												}
											}
										}
									}
								}
							}
						}
					}
				}
				JOINT RightShoulder
				{
					OFFSET -15.141001 14.495407 -7.737500
					CHANNELS 3 Xrotation Yrotation Zrotation
					JOINT RightArm
					{
						OFFSET -9.308998 -2.777710 0.208500
						CHANNELS 3 Xrotation Yrotation Zrotation
						JOINT RightForeArm
						{
							OFFSET -29.972300 0.000000 0.000000
							CHANNELS 3 Xrotation Yrotation Zrotation
							JOINT RightHand
							{
								OFFSET -26.026505 0.000000 0.000000
								CHANNELS 3 Xrotation Yrotation Zrotation
								JOINT RightHandThumb1
								{
									OFFSET -12.240601 -7.148026 9.207092
									CHANNELS 3 Xrotation Yrotation Zrotation
									JOINT RightHandThumb2
									{
										OFFSET -4.138618 -2.389435 2.389433
										CHANNELS 3 Xrotation Yrotation Zrotation
										JOINT RightHandThumb3
										{
											OFFSET -2.726974 -1.574417 1.574421
											CHANNELS 3 Xrotation Yrotation Zrotation
											JOINT RightHandThumb4
											{
												OFFSET -3.941010 -2.275345 2.275343
												CHANNELS 3 Xrotation Yrotation Zrotation
												End Site
												{
													OFFSET 0.005814 5.087799 0.009927
												}
											}
										}
									}
								}
								JOINT RightHandIndex1
								{
									OFFSET -24.424698 -1.985657 5.953444
									CHANNELS 3 Xrotation Yrotation Zrotation
									JOINT RightHandIndex2
									{
										OFFSET -6.426697 0.000000 0.000000
										CHANNELS 3 Xrotation Yrotation Zrotation
										JOINT RightHandIndex3
										{
											OFFSET -5.337898 0.000000 0.000000
											CHANNELS 3 Xrotation Yrotation Zrotation
											JOINT RightHandIndex4
											{
												OFFSET -4.409401 0.000000 0.000000
												CHANNELS 3 Xrotation Yrotation Zrotation
												End Site
												{
													OFFSET 0.000000 4.409363 0.014408
												}
											}
										}
									}
								}
								JOINT RightHandMiddle1
								{
									OFFSET -23.810097 0.000000 0.000000
									CHANNELS 3 Xrotation Yrotation Zrotation
									JOINT RightHandMiddle2
									{
										OFFSET -7.176498 0.000000 0.000000
										CHANNELS 3 Xrotation Yrotation Zrotation
										JOINT RightHandMiddle3
										{
											OFFSET -6.774902 0.000000 0.000000
											CHANNELS 3 Xrotation Yrotation Zrotation
											JOINT RightHandMiddle4
											{
												OFFSET -5.403328 0.000000 0.000000
												CHANNELS 3 Xrotation Yrotation Zrotation
												End Site
												{
													OFFSET 0.027702 5.403244 0.017457
												}
											}
										}
									}
								}
								JOINT RightHandRing1
								{
									OFFSET -22.908302 -0.839325 -6.020576
									CHANNELS 3 Xrotation Yrotation Zrotation
									JOINT RightHandRing2
									{
										OFFSET -6.337502 0.000000 0.000000
										CHANNELS 3 Xrotation Yrotation Zrotation
										JOINT RightHandRing3
										{
											OFFSET -5.779297 0.000000 0.000000
											CHANNELS 3 Xrotation Yrotation Zrotation
											JOINT RightHandRing4
											{
												OFFSET -4.965698 0.000000 0.000000
												CHANNELS 3 Xrotation Yrotation Zrotation
												End Site
												{
													OFFSET 0.000000 4.965668 0.016226
												}
											}
										}
									}
								}
								JOINT RightHandPinky1
								{
									OFFSET -20.037003 -1.530334 -10.950259
									CHANNELS 3 Xrotation Yrotation Zrotation
									JOINT RightHandPinky2
									{
										OFFSET -5.254700 0.000000 0.000000
										CHANNELS 3 Xrotation Yrotation Zrotation
										JOINT RightHandPinky3
										{
											OFFSET -4.810204 0.000000 0.000000
											CHANNELS 3 Xrotation Yrotation Zrotation
											JOINT RightHandPinky4
											{
												OFFSET -3.647202 0.000000 0.000000
												CHANNELS 3 Xrotation Yrotation Zrotation
												End Site
												{
													OFFSET 0.000000 3.647186 0.011917
												}
											}
										}
									}
								}
							}
						}
					}
				}
			}
		}
	}
	JOINT LeftUpLeg
	{
		OFFSET 15.427100 -6.655098 0.678600
		CHANNELS 3 Xrotation Yrotation Zrotation
		JOINT LeftLeg
		{
			OFFSET 4.081073 -39.591068 13.024000
			CHANNELS 3 Xrotation Yrotation Zrotation
			JOINT LeftFoot
			{
				OFFSET -4.081074 -37.707932 -15.979700
				CHANNELS 3 Xrotation Yrotation Zrotation
				JOINT LeftToeBase
				{
					OFFSET 5.346399 -15.068900 20.645000
					CHANNELS 3 Xrotation Yrotation Zrotation
					JOINT LeftToe_End
					{
						OFFSET 2.754700 0.931300 11.300900
						CHANNELS 3 Xrotation Yrotation Zrotation
						End Site
						{
							OFFSET 0.000000 11.669021 0.000000
						}
					}
				}
			}
		}
	}
	JOINT RightUpLeg
	{
		OFFSET -15.569500 -6.655098 0.678600
		CHANNELS 3 Xrotation Yrotation Zrotation
		JOINT RightLeg
		{
			OFFSET -4.081825 -39.591045 13.023800
			CHANNELS 3 Xrotation Yrotation Zrotation
			JOINT RightFoot
			{
				OFFSET 4.081824 -37.707954 -15.979600
				CHANNELS 3 Xrotation Yrotation Zrotation
				JOINT RightToeBase
				{
					OFFSET -5.346400 -15.068900 20.645000
					CHANNELS 3 Xrotation Yrotation Zrotation
					JOINT RightToe_End
					{
						OFFSET -2.754700 0.931300 11.300900
						CHANNELS 3 Xrotation Yrotation Zrotation
						End Site
						{
							OFFSET 0.000000 11.669021 0.000000
						}
					}
				}
			}
		}
	}
}
MOTION
Frames: 4
Frame Time: 0.033333
-0.928026 94.976677 -0.599416 -1.618789 -2.579404 -0.227875 0.136075 -0.119845 0.102815 0.298336 -0.251659 0.416969 0.298351 -0.251582 0.416942 -0.112159 1.271947 4.096431 -4.827114 10.954315 2.267531 -0.000001 -0.000000 0.000000 -5.151144 13.991217 12.071079 -36.744256 12.759054 -13.198188 -0.000019 -8.783039 -0.000002 -48.686370 -15.421567 4.494816 -15.608452 -9.120204 20.638064 7.586953 22.121904 -2.191630 53.484083 58.944649 -34.126859 -0.000000 -0.000001 -0.000000 3.015325 5.748239 -62.372393 9.477039 6.374963 -112.210849 2.538845 5.343169 -50.805061 0.000002 -0.000001 -0.000000 3.200267 5.967490 -69.200492 9.614767 6.317330 -113.456921 2.747183 5.505781 -53.008777 -0.000002 0.000000 -0.000001 4.908363 6.595629 -71.956999 7.287400 6.869256 -93.392394 2.175361 5.026199 -46.784443 0.000000 0.000001 -0.000001 11.185965 6.949927 -89.080557 8.458522 2.611815 -103.254019 2.446695 5.266998 -49.808475 -0.000000 0.000001 0.000002 -2.512171 -9.180952 -9.881785 -24.045640 -14.944625 5.618432 0.000006 2.982483 0.000001 -45.209176 9.658018 4.042256 -6.590692 -3.687343 5.837992 14.724800 -32.360299 2.132162 13.965508 -35.913360 -0.448934 0.000001 0.000002 0.000000 4.163005 -6.468412 76.101305 11.256584 -5.456401 128.389279 0.402685 -2.336120 19.557536 -0.000004 -0.000000 -0.000000 4.047593 -6.402999 74.227839 8.792308 -6.700208 105.426886 1.879009 -4.280625 40.078935 0.000003 -0.000001 0.000001 5.541055 -6.824715 74.009287 8.337630 -6.808583 101.562372 1.116190 -3.458606 30.567583 -0.000003 -0.000000 -0.000001 5.211200 -6.775658 68.981939 8.627751 -6.743171 104.020926 3.357872 -5.952592 58.824506 0.000001 -0.000002 0.000000 -5.831917 6.021937 8.565429 15.658704 -4.516632 -0.408211 -8.738438 0.204345 -6.490256 -0.464677 0.000000 0.000002 -0.000000 0.000000 0.000000 -9.166427 -14.128190 -5.471523 17.502520 9.019722 -3.147767 -7.364248 -0.276859 4.904849 -0.184626 0.000003 0.000001 -0.000000 0.000001 0.000000 
-0.950852 94.985687 -0.582730 -1.413494 -2.653766 -0.267711 0.105893 -0.101786 0.111423 0.236594 -0.214670 0.429100 0.236609 -0.214595 0.429071 -0.088769 1.260804 4.206039 -4.828379 11.033697 2.264161 -0.000000 0.000001 -0.000000 -5.323960 14.321964 12.460409 -37.002458 13.084693 -12.877735 -0.000007 -8.309997 0.000002 -48.930154 -15.533442 4.742928 -15.637928 -9.297426 20.817865 7.518046 21.919448 -2.143515 52.501407 58.637734 -33.350823 -0.000001 0.000000 0.000001 3.061903 5.774098 -62.485842 9.516333 6.358878 -112.565281 2.552744 5.354427 -50.954287 0.000000 -0.000001 -0.000000 3.270281 5.997762 -69.363112 9.633336 6.309293 -113.625757 2.771380 5.523828 -53.260497 0.000003 0.000001 -0.000002 4.717918 6.533985 -72.044808 7.327628 6.866753 -93.728753 2.172416 5.023473 -46.751036 -0.000001 -0.000001 0.000001 11.084856 6.944405 -89.132760 8.495327 2.603053 -103.568843 2.471887 5.288127 -50.082533 -0.000001 0.000001 0.000001 -2.593626 -9.310094 -10.103885 -24.003399 -15.867744 5.188301 0.000009 2.913113 0.000000 -46.153016 9.573089 3.710137 -7.460449 -2.439932 4.589982 13.692687 -30.291933 1.813781 11.681533 -31.291265 -1.139573 0.000001 0.000001 0.000004 1.636837 -5.389824 68.929122 10.903920 -5.716849 124.767926 0.414512 -2.369116 19.845635 -0.000002 0.000000 0.000000 3.092128 -5.951557 68.477182 8.509302 -6.771431 103.014354 1.773304 -4.296541 39.598831 -0.000001 0.000000 -0.000000 4.852854 -6.641114 68.742125 7.752881 -6.901713 96.666294 0.965458 -3.353176 29.167274 0.000004 0.000000 -0.000000 4.555126 -6.541536 65.938305 8.284986 -6.819062 101.118628 3.005432 -5.725705 55.361272 -0.000001 0.000000 -0.000003 -6.011589 5.940183 8.618960 15.679973 -4.366273 -0.349915 -8.770592 0.220883 -6.586763 -0.471932 0.000001 0.000000 -0.000000 -0.000000 -0.000000 -9.350947 -14.075364 -5.401793 17.451050 9.030213 -3.105489 -7.318951 -0.267466 4.861034 -0.159784 -0.000005 -0.000000 0.000000 -0.000000 -0.000000 
-0.976344 94.989388 -0.578145 -1.208363 -2.686073 -0.302430 0.083894 -0.079906 0.118919 0.191567 -0.170068 0.440058 0.191581 -0.170000 0.440029 -0.036396 1.257690 4.299909 -4.877042 11.126451 2.255825 -0.000000 0.000000 -0.000000 -5.502979 14.713640 12.861507 -37.432654 13.581217 -12.598628 -0.000015 -8.245705 -0.000002 -48.972303 -15.864255 4.723562 -15.579344 -9.395106 21.103857 7.637812 22.274787 -2.229029 46.548258 56.668857 -28.593342 -0.000001 -0.000001 -0.000000 3.453704 5.976014 -62.153444 9.563767 6.339086 -112.994162 2.553737 5.355245 -50.964976 -0.000002 0.000001 -0.000000 3.751398 6.169119 -68.627938 9.657304 6.298805 -113.844022 2.764064 5.518377 -53.184470 -0.000001 -0.000001 0.000000 4.427847 6.434758 -70.925408 7.365848 6.864196 -94.048399 2.135759 4.988855 -46.330901 0.000001 -0.000001 0.000000 10.660193 7.003511 -88.171404 8.384940 2.628731 -102.625641 2.433930 5.256255 -49.669289 -0.000001 -0.000000 0.000003 -2.660341 -9.417995 -10.286308 -23.837000 -16.928668 4.760381 -0.000001 2.812980 -0.000003 -47.401236 9.271762 3.515338 -8.533147 -0.526136 2.189398 12.929008 -28.711486 1.588235 10.035601 -27.727553 -1.590046 0.000000 0.000004 -0.000003 -1.945698 -2.347122 56.112210 10.276300 -6.102741 118.678225 0.368909 -2.238888 18.711691 -0.000000 -0.000000 -0.000000 1.959419 -5.102028 58.612114 8.005838 -6.867638 98.776420 1.616102 -4.214055 38.214447 -0.000001 -0.000000 -0.000000 4.011641 -6.319476 61.003138 6.798051 -6.946626 88.758281 0.766183 -3.194659 27.226372 0.000000 0.000000 -0.000001 4.011073 -6.313202 61.650401 7.602294 -6.917531 95.414683 2.534451 -5.371538 50.493348 -0.000000 -0.000001 0.000000 -6.227293 5.878197 8.674175 15.711749 -4.277729 -0.309390 -8.784784 0.229302 -6.656677 -0.477099 -0.000001 -0.000002 0.000000 -0.000000 0.000000 -9.541207 -14.030527 -5.350065 17.412971 9.015959 -3.050230 -7.283197 -0.259849 4.817047 -0.129494 -0.000003 0.000001 0.000000 0.000000 0.000000 
-1.005915 94.989861 -0.588424 -1.021045 -2.664640 -0.336583 0.072301 -0.056816 0.125580 0.167855 -0.123071 0.449931 0.167864 -0.123001 0.449904 0.047668 1.255891 4.383819 -4.903562 11.208361 2.250786 -0.000000 -0.000001 0.000000 -5.683683 15.154759 13.270632 -38.001649 14.231602 -12.295392 -0.000008 -8.541389 0.000003 -48.844691 -16.355038 4.370586 -15.382616 -9.323452 21.501862 7.927908 23.116295 -2.434627 36.139661 51.922255 -20.418878 -0.000003 0.000000 -0.000001 4.131841 6.370095 -59.585457 9.456416 6.383308 -112.025163 2.461499 5.279446 -49.969712 0.000000 0.000000 0.000001 4.723329 6.585569 -65.427366 9.618857 6.315585 -113.494009 2.643632 5.426561 -51.921585 -0.000002 -0.000000 0.000003 4.484578 6.460624 -67.402451 7.287610 6.869260 -93.394026 2.027272 4.883342 -45.069768 -0.000000 -0.000000 -0.000003 9.930154 7.164574 -85.101903 7.921517 2.715872 -98.699990 2.249260 5.094359 -47.622288 -0.000002 0.000000 0.000002 -2.723606 -9.518205 -10.468726 -23.602733 -18.097433 4.430302 -0.000003 2.673578 -0.000002 -48.824388 8.713313 3.482653 -9.614456 2.031582 -1.157367 12.435342 -27.667005 1.446665 9.273324 -26.021981 -1.789512 -0.000003 -0.000000 -0.000000 -4.297732 2.758947 40.049729 9.473126 -6.475315 111.356215 0.283332 -1.968403 16.380530 0.000003 -0.000000 -0.000001 1.126862 -4.054880 46.151134 7.324638 -6.938094 93.113025 1.452561 -4.015754 36.049547 0.000001 -0.000001 0.000001 3.400232 -6.053646 51.925243 5.692199 -6.834318 79.560236 0.560095 -2.996700 25.030837 0.000000 0.000001 0.000000 4.007496 -6.390271 56.510700 6.633263 -6.941135 87.395426 2.003223 -4.887128 44.556790 0.000003 0.000000 -0.000001 -6.467272 5.846508 8.735228 15.749400 -4.272499 -0.289315 -8.774043 0.227196 -6.693338 -0.479220 -0.000001 -0.000000 -0.000000 -0.000000 -0.000000 -9.709955 -13.993922 -5.310390 17.379471 8.963827 -2.985189 -7.256092 -0.255429 4.777666 -0.095728 0.000000 0.000001 0.000000 0.000000 0.000000 
